<svg width="20" height="21" viewBox="0 0 20 21" fill="none" xmlns="http://www.w3.org/2000/svg">
<path d="M1 17.5066V9.55276C1 8.78334 1.35523 8.05702 1.96257 7.58464L8.46924 2.5239C9.36961 1.82362 10.6304 1.82362 11.5308 2.5239L18.0374 7.58464C18.6448 8.05702 19 8.78334 19 9.55276V17.5066C19 18.8837 17.8837 20 16.5067 20H13.6667C13.2985 20 13 19.7015 13 19.3333V15.8649C13 15.5139 12.9426 15.159 12.7569 14.8613C12.5139 14.4718 12.1897 14.1364 11.804 13.8793C11.27 13.5233 10.6422 13.3333 10 13.3333C9.35777 13.3333 8.72996 13.5233 8.19597 13.8793C7.81029 14.1364 7.48607 14.4718 7.24312 14.8613C7.0574 15.159 7 15.5139 7 15.8649V19.3333C7 19.7015 6.70152 20 6.33333 20H3.49333C2.1163 20 1 18.8837 1 17.5066Z" stroke="#F46E3B" stroke-width="2" stroke-linecap="round" stroke-linejoin="round"/>
</svg>
