<svg width="32" height="32" viewBox="0 0 32 32" fill="none" xmlns="http://www.w3.org/2000/svg">
<path d="M13.0016 11.9008C12.9886 12.2946 13.0533 12.687 13.1919 13.0558C13.3306 13.4245 13.5405 13.7624 13.8097 14.05C14.0789 14.3377 14.4021 14.5694 14.7609 14.7322C15.1197 14.8949 15.5071 14.9853 15.9008 14.9984C16.2946 15.0114 16.687 14.9467 17.0558 14.8081C17.4245 14.6694 17.7624 14.4595 18.05 14.1903C18.3377 13.9211 18.5694 13.5979 18.7322 13.2391C18.8949 12.8803 18.9853 12.4929 18.9984 12.0992C19.0114 11.7054 18.9467 11.313 18.8081 10.9442C18.6694 10.5755 18.4595 10.2376 18.1903 9.94998C17.9211 9.66235 17.5979 9.43055 17.2391 9.26784C16.8803 9.10512 16.4929 9.01467 16.0992 9.00164C15.7054 8.98861 15.313 9.05327 14.9442 9.19192C14.5755 9.33056 14.2376 9.54049 13.95 9.8097C13.6623 10.0789 13.4306 10.4021 13.2678 10.7609C13.1051 11.1197 13.0147 11.5071 13.0016 11.9008Z" stroke="#636A7D" stroke-width="1.5" stroke-linecap="round" stroke-linejoin="round"/>
<path d="M22 23C21.5085 21.816 20.6761 20.804 19.6081 20.092C18.5401 19.38 17.2845 19 16 19C14.7155 19 13.4599 19.38 12.3919 20.092C11.3239 20.804 10.4915 21.816 10 23" stroke="#636A7D" stroke-width="1.5" stroke-linecap="round" stroke-linejoin="round"/>
</svg>
